<?xml version="1.0" encoding="utf-8"?>
<!-- Generator: Adobe Illustrator 27.1.0, SVG Export Plug-In . SVG Version: 6.00 Build 0)  -->
<svg version="1.1" id="Layer_1" xmlns="http://www.w3.org/2000/svg" xmlns:xlink="http://www.w3.org/1999/xlink" x="0px" y="0px"
	 viewBox="0 0 3204 1068" style="enable-background:new 0 0 3204 1068;" xml:space="preserve">
<style type="text/css">
	.st0{clip-path:url(#SVGID_00000028300716703762423580000012172317302572612252_);}
	.st1{fill:#FFFFFF;}
</style>
<g>
	<defs>
		<rect id="SVGID_1_" width="3204" height="1068"/>
	</defs>
	<clipPath id="SVGID_00000152963362234186195530000011570622201713310370_">
		<use xlink:href="#SVGID_1_"  style="overflow:visible;"/>
	</clipPath>
	<g style="clip-path:url(#SVGID_00000152963362234186195530000011570622201713310370_);">
		<path class="st1" d="M0,812.9V807l157,153.7l160.6-157l160.6,157l160.6-157l160.6,157l160.6-157l160.6,157l160.6-157l160.6,157
			l160.6-157v5.9l-160.6,157l-160.6-157l-160.6,157l-160.6-157l-160.6,157l-160.6-157l-160.6,157l-160.6-157L157,966.6L0,812.9z
			 M157,1172.5l160.6-157l160.6,157l160.6-157l160.6,157l160.6-157l160.6,157l160.6-157l160.6,157l160.6-157v-5.9l-160.6,157
			l-160.6-157l-160.6,157l-160.6-157l-160.6,157l-160.6-157l-160.6,157l-160.6-157l-160.6,157L0,1013v5.9L157,1172.5z M157,1035.2
			l160.6-157l160.6,157l160.6-157l160.6,157l160.6-157l160.6,157l160.6-157l160.6,157l160.6-157v-5.9l-160.6,157l-160.6-157
			l-160.6,157l-160.6-157l-160.6,157l-160.6-157l-160.6,157l-160.6-157l-160.6,157L0,875.7v5.9L157,1035.2z M157,898l160.6-157
			l160.6,157l160.6-157l160.6,157l160.6-157l160.6,157l160.6-157l160.6,157l160.6-157V735l-160.6,157l-160.6-157l-160.6,157
			L959.8,735L799.2,892L638.7,735L478.1,892L317.6,735L157,892L0,738.5v5.9L157,898z M157,829.3l160.6-157l160.6,157l160.6-157
			l160.6,157l160.6-157l160.6,157l160.6-157l160.6,157l160.6-157v-5.9l-160.6,157l-160.6-157l-160.6,157l-160.6-157l-160.6,157
			l-160.6-157l-160.6,157l-160.6-157L157,823.4L0,669.9v5.9L157,829.3z M157,1515.6l160.6-157l160.6,157l160.6-157l160.6,157
			l160.6-157l160.6,157l160.6-157l160.6,157l160.6-157v-5.9l-160.6,157l-160.6-157l-160.6,157l-160.6-157l-160.6,157l-160.6-157
			l-160.6,157l-160.6-157l-160.6,157L0,1356.1v5.9L157,1515.6z M157,760.7l160.6-157l160.6,157l160.6-157l160.6,157l160.6-157
			l160.6,157l160.6-157l160.6,157l160.6-157v-5.9l-160.6,157l-160.6-157l-160.6,157l-160.6-157l-160.6,157l-160.6-157l-160.6,157
			l-160.6-157L157,754.8L0,601.2v5.9L157,760.7z M157,1241.1l160.6-157l160.6,157l160.6-157l160.6,157l160.6-157l160.6,157
			l160.6-157l160.6,157l160.6-157v-5.9l-160.6,157l-160.6-157l-160.6,157l-160.6-157l-160.6,157l-160.6-157l-160.6,157l-160.6-157
			l-160.6,157L0,1081.6v5.9L157,1241.1z M157,1446.9l160.6-157l160.6,157l160.6-157l160.6,157l160.6-157l160.6,157l160.6-157
			l160.6,157l160.6-157v-5.9l-160.6,157l-160.6-157l-160.6,157l-160.6-157l-160.6,157l-160.6-157l-160.6,157l-160.6-157L157,1441
			L0,1287.4v5.9L157,1446.9z M157,1378.3l160.6-157l160.6,157l160.6-157l160.6,157l160.6-157l160.6,157l160.6-157l160.6,157
			l160.6-157v-5.9l-160.6,157l-160.6-157l-160.6,157l-160.6-157l-160.6,157l-160.6-157l-160.6,157l-160.6-157l-160.6,157L0,1218.8
			v5.9L157,1378.3z M157,1309.7l160.6-157l160.6,157l160.6-157l160.6,157l160.6-157l160.6,157l160.6-157l160.6,157l160.6-157v-5.9
			l-160.6,157l-160.6-157l-160.6,157l-160.6-157l-160.6,157l-160.6-157l-160.6,157l-160.6-157l-160.6,157L0,1150.2v5.9L157,1309.7z
			 M157,1584.2l160.6-157l160.6,157l160.6-157l160.6,157l160.6-157l160.6,157l160.6-157l160.6,157l160.6-157v-5.9l-160.6,157
			l-160.6-157l-160.6,157l-160.6-157l-160.6,157l-160.6-157l-160.6,157l-160.6-157l-160.6,157L0,1424.7v5.9L157,1584.2z
			 M638.6,1558.5l-26.3,25.7h6l20.3-19.8l20.3,19.8h6L638.6,1558.5z M317.6,1558.5l-26.3,25.7h6l20.3-19.8l20.3,19.8h6L317.6,1558.5
			z M157,349l160.6-157l160.6,157l160.6-157l160.6,157l160.6-157l160.6,157l160.6-157l160.6,157L1602,192V186l-160.6,157l-160.6-157
			l-160.6,157L959.8,186l-160.6,157L638.7,186l-160.6,157L317.6,186L157,343.1L0,189.4v5.9L157,349z M959.7,1558.5l-26.3,25.7h6
			l20.3-19.8l20.3,19.8h6L959.7,1558.5z M1280.7,1558.5l-26.3,25.7h6l20.3-19.8l20.3,19.8h6L1280.7,1558.5z M157,486.2l160.6-157
			l160.6,157l160.6-157l160.6,157l160.6-157l160.6,157l160.6-157l160.6,157l160.6-157v-5.9l-160.6,157l-160.6-157l-160.6,157
			l-160.6-157l-160.6,157l-160.6-157l-160.6,157l-160.6-157L157,480.3L0,326.6v5.9L157,486.2z M157,623.5l160.6-157l160.6,157
			l160.6-157l160.6,157l160.6-157l160.6,157l160.6-157l160.6,157l160.6-157v-5.9l-160.6,157l-160.6-157l-160.6,157l-160.6-157
			l-160.6,157l-160.6-157l-160.6,157l-160.6-157L157,617.5L0,464v5.9L157,623.5z M157,554.9l160.6-157l160.6,157l160.6-157
			l160.6,157l160.6-157l160.6,157l160.6-157l160.6,157l160.6-157v-5.9l-160.6,157l-160.6-157l-160.6,157l-160.6-157l-160.6,157
			l-160.6-157l-160.6,157l-160.6-157L157,548.9L0,395.3v5.9L157,554.9z M157,417.6l160.6-157l160.6,157l160.6-157l160.6,157
			l160.6-157l160.6,157l160.6-157l160.6,157l160.6-157v-5.9l-160.6,157l-160.6-157l-160.6,157l-160.6-157l-160.6,157l-160.6-157
			l-160.6,157l-160.6-157L157,411.7L0,258v5.9L157,417.6z M157,692.1l160.6-157l160.6,157l160.6-157l160.6,157l160.6-157l160.6,157
			l160.6-157l160.6,157l160.6-157v-5.9l-160.6,157l-160.6-157l-160.6,157l-160.6-157l-160.6,157l-160.6-157l-160.6,157l-160.6-157
			L157,686.2L0,532.6v5.9L157,692.1z M317.6,123.4l160.6,157l160.6-157l160.6,157l160.6-157l160.6,157l160.6-157l160.6,157
			l160.6-157v-5.9l-160.6,157l-160.6-157l-160.6,157l-160.6-157l-160.6,157l-160.6-157l-160.6,157l-160.6-157L157,274.4L0,120.8v5.9
			l157,153.7L317.6,123.4z M157,1103.8l160.6-157l160.6,157l160.6-157l160.6,157l160.6-157l160.6,157l160.6-157l160.6,157l160.6-157
			v-5.9l-160.6,157l-160.6-157l-160.6,157l-160.6-157l-160.6,157l-160.6-157l-160.6,157l-160.6-157l-160.6,157L0,944.3v5.9
			L157,1103.8z M407.9,1584.2h6l-96.4-94.3l-96.4,94.3h6l90.4-88.4L407.9,1584.2z M1511.5,5.8h-6l-64.1,62.8l-64.1-62.8h-6
			l70.2,68.6L1511.5,5.8z M939.5,5.8h-6L799.1,137.2L664.9,5.8h-6L799.2,143L939.5,5.8z M1260.5,5.8h-6l-134.4,131.4L985.9,5.8h-6
			L1120.2,143L1260.5,5.8z M1441.3,137.2L1307,5.8h-6L1441.4,143L1581.6,5.8h-6L1441.3,137.2z M157,143.1L297.4,5.8h-6L157,137.2
			L22.8,5.8h-6L157,143.1z M157,74.5l70.2-68.6h-6l-64.1,62.8L92.9,5.8h-6L157,74.5z M618.4,5.8h-6L478,137.2L343.8,5.8h-6
			L478.1,143L618.4,5.8z M1371.1,1584.2h6l-96.4-94.3l-96.4,94.3h6l90.4-88.4L1371.1,1584.2z M1601.8,1489.8l-96.4,94.3h6l90.4-88.4
			V1489.8z M413.9,5.8h-6l70.2,68.6l70.2-68.6h-6l-64.1,62.8L413.9,5.8z M729,1584.2h6l-96.4-94.3l-96.4,94.3h6l90.4-88.4
			L729,1584.2z M86.9,1584.2h6L0,1493.3v5.9L86.9,1584.2z M1050,1584.2h6l-96.4-94.3l-96.4,94.3h6l90.4-88.4L1050,1584.2z
			 M1190.4,5.8h-6l-64.1,62.8l-64.1-62.8h-6l70.2,68.6L1190.4,5.8z M735,5.8h-6l70.2,68.6l70.2-68.6h-6l-64.1,62.8L735,5.8z
			 M16.8,1584.2h6L0,1561.9v5.9L16.8,1584.2z M1280.7,48.8l-160.6,157l-160.6-157L799,205.8l-160.6-157l-160.6,157l-160.6-157
			l-160.6,157L0,52.2v5.9l157,153.7l160.6-157l160.6,157l160.6-157l160.6,157l160.6-157l160.6,157l160.6-157l160.6,157l160.6-157
			v-5.9l-160.6,157L1280.7,48.8z M1601.8,1558.5l-26.3,25.7h6l20.3-19.8V1558.5z"/>
		<path class="st1" d="M1602,809.5v-5.9l157,153.7l160.6-157l160.6,157l160.6-157l160.6,157l160.6-157l160.6,157l160.6-157
			l160.6,157l160.6-157v5.9l-160.6,157l-160.6-157l-160.6,157l-160.6-157l-160.6,157l-160.6-157l-160.6,157l-160.6-157l-160.6,157
			L1602,809.5z M1759,1169l160.6-157l160.6,157l160.6-157l160.6,157l160.6-157l160.6,157l160.6-157l160.6,157l160.6-157v-5.9
			l-160.6,157l-160.6-157l-160.6,157l-160.6-157l-160.6,157l-160.6-157l-160.6,157l-160.6-157l-160.6,157l-157-153.7v5.9L1759,1169z
			 M1759,1031.8l160.6-157l160.6,157l160.6-157l160.6,157l160.6-157l160.6,157l160.6-157l160.6,157l160.6-157v-5.9l-160.6,157
			l-160.6-157l-160.6,157l-160.6-157l-160.6,157l-160.6-157l-160.6,157l-160.6-157l-160.6,157l-157-153.7v5.9L1759,1031.8z
			 M1759,894.5l160.6-157l160.6,157l160.6-157l160.6,157l160.6-157l160.6,157l160.6-157l160.6,157l160.6-157v-5.9l-160.6,157
			l-160.6-157l-160.6,157l-160.6-157l-160.6,157l-160.6-157l-160.6,157l-160.6-157l-160.6,157l-157-153.7v5.9L1759,894.5z
			 M1759,825.9l160.6-157l160.6,157l160.6-157l160.6,157l160.6-157l160.6,157l160.6-157l160.6,157l160.6-157v-5.9l-160.6,157
			l-160.6-157l-160.6,157l-160.6-157l-160.6,157l-160.6-157l-160.6,157l-160.6-157L1759,820l-157-153.7v5.9L1759,825.9z
			 M1759,1512.1l160.6-157l160.6,157l160.6-157l160.6,157l160.6-157l160.6,157l160.6-157l160.6,157l160.6-157v-5.9l-160.6,157
			l-160.6-157l-160.6,157l-160.6-157l-160.6,157l-160.6-157l-160.6,157l-160.6-157l-160.6,157l-157-153.7v5.9L1759,1512.1z
			 M1759,757.3l160.6-157l160.6,157l160.6-157l160.6,157l160.6-157l160.6,157l160.6-157l160.6,157l160.6-157v-5.9l-160.6,157
			l-160.6-157l-160.6,157l-160.6-157l-160.6,157l-160.6-157l-160.6,157l-160.6-157l-160.6,157l-157-153.7v5.9L1759,757.3z
			 M1759,1237.6l160.6-157l160.6,157l160.6-157l160.6,157l160.6-157l160.6,157l160.6-157l160.6,157l160.6-157v-5.9l-160.6,157
			l-160.6-157l-160.6,157l-160.6-157l-160.6,157l-160.6-157l-160.6,157l-160.6-157l-160.6,157L1602,1078v5.9L1759,1237.6z
			 M1759,1443.5l160.6-157l160.6,157l160.6-157l160.6,157l160.6-157l160.6,157l160.6-157l160.6,157l160.6-157v-5.9l-160.6,157
			l-160.6-157l-160.6,157l-160.6-157l-160.6,157l-160.6-157l-160.6,157l-160.6-157l-160.6,157l-157-153.7v5.9L1759,1443.5z
			 M1759,1374.9l160.6-157l160.6,157l160.6-157l160.6,157l160.6-157l160.6,157l160.6-157l160.6,157l160.6-157v-5.9l-160.6,157
			l-160.6-157l-160.6,157l-160.6-157l-160.6,157l-160.6-157l-160.6,157l-160.6-157l-160.6,157l-157-153.7v5.9L1759,1374.9z
			 M1759,1306.2l160.6-157l160.6,157l160.6-157l160.6,157l160.6-157l160.6,157l160.6-157l160.6,157l160.6-157v-5.9l-160.6,157
			l-160.6-157l-160.6,157l-160.6-157l-160.6,157l-160.6-157l-160.6,157l-160.6-157l-160.6,157l-157-153.6v5.9L1759,1306.2z
			 M1759,1580.7l160.6-157l160.6,157l160.6-157l160.6,157l160.6-157l160.6,157l160.6-157l160.6,157l160.6-157v-5.9l-160.6,157
			l-160.6-157l-160.6,157l-160.6-157l-160.6,157l-160.6-157l-160.6,157l-160.6-157l-160.6,157l-157-153.7v5.9L1759,1580.7z
			 M2240.6,1555l-26.3,25.7h6l20.3-19.8l20.3,19.8h6L2240.6,1555z M1919.5,1555l-26.3,25.7h6l20.3-19.8l20.3,19.8h6L1919.5,1555z
			 M1759,345.5l160.6-157l160.6,157l160.6-157l160.6,157l160.6-157l160.6,157l160.6-157l160.6,157l160.6-157v-5.9l-160.6,157
			l-160.6-157l-160.6,157l-160.6-157l-160.6,157l-160.6-157l-160.6,157l-160.6-157l-160.6,157L1602,186v5.9L1759,345.5z
			 M2561.6,1555l-26.3,25.7h6l20.3-19.8l20.3,19.8h6L2561.6,1555z M2882.7,1555l-26.3,25.7h6l20.3-19.8l20.3,19.8h6L2882.7,1555z
			 M1759,482.8l160.6-157l160.6,157l160.6-157l160.6,157l160.6-157l160.6,157l160.6-157l160.6,157l160.6-157v-5.9l-160.6,157
			l-160.6-157l-160.6,157l-160.6-157l-160.6,157l-160.6-157l-160.6,157l-160.6-157l-160.6,157l-157-153.7v5.9L1759,482.8z M1759,620
			l160.6-157l160.6,157l160.6-157l160.6,157l160.6-157l160.6,157l160.6-157l160.6,157L3204,463v-5.9l-160.6,157l-160.6-157
			l-160.6,157l-160.6-157l-160.6,157l-160.6-157l-160.6,157l-160.6-157l-160.6,157l-157-153.6v5.9L1759,620z M1759,551.4l160.6-157
			l160.6,157l160.6-157l160.6,157l160.6-157l160.6,157l160.6-157l160.6,157l160.6-157v-5.9l-160.6,157l-160.6-157l-160.6,157
			l-160.6-157l-160.6,157l-160.6-157l-160.6,157l-160.6-157l-160.6,157l-157-153.7v5.9L1759,551.4z M1759,414.2l160.6-157l160.6,157
			l160.6-157l160.6,157l160.6-157l160.6,157l160.6-157l160.6,157l160.6-157v-5.9l-160.6,157l-160.6-157l-160.6,157l-160.6-157
			l-160.6,157l-160.6-157l-160.6,157l-160.6-157l-160.6,157l-157-153.7v5.9L1759,414.2z M1759,688.7l160.6-157l160.6,157l160.6-157
			l160.6,157l160.6-157l160.6,157l160.6-157l160.6,157l160.6-157v-5.9l-160.6,157l-160.6-157l-160.6,157l-160.6-157l-160.6,157
			l-160.6-157l-160.6,157l-160.6-157l-160.6,157l-157-153.7v5.9L1759,688.7z M1919.5,119.9l160.6,157l160.6-157l160.6,157l160.6-157
			l160.6,157l160.6-157l160.6,157l160.6-157V114l-160.6,157l-160.6-157l-160.6,157l-160.6-157l-160.6,157l-160.6-157L2080,271
			l-160.6-157l-160.6,157l-157-153.7v5.9l157,153.7L1919.5,119.9z M1759,1100.4l160.6-157l160.6,157l160.6-157l160.6,157l160.6-157
			l160.6,157l160.6-157l160.6,157l160.6-157v-5.9l-160.6,157l-160.6-157l-160.6,157l-160.6-157l-160.6,157l-160.6-157l-160.6,157
			l-160.6-157l-160.6,157l-157-153.7v5.9L1759,1100.4z M2009.9,1580.7h6l-96.4-94.3l-96.4,94.3h6l90.4-88.4L2009.9,1580.7z
			 M3113.4,2.3h-6l-64.1,62.8l-64.1-62.8h-6l70.2,68.6L3113.4,2.3z M2541.4,2.3h-6l-134.3,131.4L2266.8,2.3h-6l140.4,137.2
			L2541.4,2.3z M2862.5,2.3h-6l-134.4,131.4L2587.9,2.3h-6l140.4,137.2L2862.5,2.3z M3043.2,133.8L2908.9,2.3h-6l140.4,137.2
			L3183.6,2.3h-6L3043.2,133.8z M1759,139.7L1899.3,2.3h-6L1759,133.8L1624.7,2.3h-6L1759,139.7z M1759,71.1l70.2-68.6h-6
			l-64.1,62.8L1695,2.4h-6L1759,71.1z M2220.4,2.3h-6l-134.3,131.4L1945.8,2.3h-6l140.4,137.2L2220.4,2.3z M2973.1,1580.7h6
			l-96.4-94.3l-96.4,94.3h6l90.4-88.4L2973.1,1580.7z M3203.8,1486.4l-96.4,94.3h6l90.4-88.4V1486.4z M2015.9,2.3h-6l70.2,68.6
			l70.2-68.6h-6l-64.1,62.8L2015.9,2.3z M2331,1580.7h6l-96.4-94.3l-96.4,94.3h6l90.4-88.4L2331,1580.7z M1688.9,1580.7h6l-92.9-91
			v5.9L1688.9,1580.7z M2652,1580.7h6l-96.4-94.3l-96.4,94.3h6l90.4-88.4L2652,1580.7z M2792.4,2.3h-6l-64.1,62.8l-64.1-62.8h-6
			l70.2,68.6L2792.4,2.3z M2336.9,2.3h-6l70.2,68.6l70.2-68.6h-6l-64.1,62.8L2336.9,2.3z M1618.8,1580.7h6l-22.8-22.3v5.9
			L1618.8,1580.7z M2882.7,45.4l-160.6,157l-160.6-157l-160.6,157l-160.6-157l-160.6,157l-160.6-157l-160.6,157L1602,48.7v5.9
			l157,153.7l160.6-157l160.6,157l160.6-157l160.6,157l160.6-157l160.6,157l160.6-157l160.6,157l160.6-157v-5.9l-160.6,157
			L2882.7,45.4z M3203.8,1555l-26.3,25.7h6l20.3-19.8V1555z"/>
	</g>
</g>
</svg>
