<?xml version="1.0" encoding="utf-8"?>
<!-- Generator: Adobe Illustrator 27.1.0, SVG Export Plug-In . SVG Version: 6.00 Build 0)  -->
<svg version="1.1" id="Layer_1" xmlns="http://www.w3.org/2000/svg" xmlns:xlink="http://www.w3.org/1999/xlink" x="0px" y="0px"
	 viewBox="0 0 3204 1068" style="enable-background:new 0 0 3204 1068;" xml:space="preserve">
<style type="text/css">
	.st0{fill:#FFFFFF;}
</style>
<path class="st0" d="M0,817.9v-6l156.5,155.4l160-158.8l160,158.8l160-158.8l160,158.8l160-158.8l160,158.8l160-158.8l160,158.8
	l160-158.8v6l-160,158.8l-160-158.8l-160,158.8l-160-158.8l-160,158.8l-160-158.8l-160,158.8l-160-158.8l-160,158.8L0,817.9z
	 M156.5,1181.5l160-158.8l160,158.8l160-158.8l160,158.8l160-158.8l160,158.8l160-158.8l160,158.8l160-158.8v-6l-160,158.8
	l-160-158.8l-160,158.8l-160-158.8l-160,158.8l-160-158.8l-160,158.8l-160-158.8l-160,158.8L0,1020.2v6L156.5,1181.5z M156.5,1042.7
	l160-158.8l160,158.8l160-158.8l160,158.8l160-158.8l160,158.8l160-158.8l160,158.8l160-158.8v-6l-160,158.8l-160-158.8l-160,158.8
	l-160-158.8l-160,158.8l-160-158.8l-160,158.8l-160-158.8l-160,158.8L0,881.4v6L156.5,1042.7z M156.5,903.9l160-158.8l160,158.8
	l160-158.8l160,158.8l160-158.8l160,158.8l160-158.8l160,158.8l160-158.8v-6l-160,158.8l-160-158.8l-160,158.8l-160-158.8
	l-160,158.8l-160-158.8l-160,158.8l-160-158.8l-160,158.8L0,742.6v6L156.5,903.9z M156.5,834.5l160-158.8l160,158.8l160-158.8
	l160,158.8l160-158.8l160,158.8l160-158.8l160,158.8l160-158.8v-6l-160,158.8l-160-158.8l-160,158.8l-160-158.8l-160,158.8
	l-160-158.8l-160,158.8l-160-158.8l-160,158.8L0,673.2v6L156.5,834.5z M156.5,1528.5l160-158.8l160,158.8l160-158.8l160,158.8
	l160-158.8l160,158.8l160-158.8l160,158.8l160-158.8v-6l-160,158.8l-160-158.8l-160,158.8l-160-158.8l-160,158.8l-160-158.8
	l-160,158.8l-160-158.8l-160,158.8L0,1367.2v6L156.5,1528.5z M156.5,765.1l160-158.8l160,158.8l160-158.8l160,158.8l160-158.8
	l160,158.8l160-158.8l160,158.8l160-158.8v-6l-160,158.8l-160-158.8l-160,158.8l-160-158.8l-160,158.8l-160-158.8l-160,158.8
	l-160-158.8l-160,158.8L0,603.8v6L156.5,765.1z M156.5,1250.9l160-158.8l160,158.8l160-158.8l160,158.8l160-158.8l160,158.8
	l160-158.8l160,158.8l160-158.8v-6l-160,158.8l-160-158.8l-160,158.8l-160-158.8l-160,158.8l-160-158.8l-160,158.8l-160-158.8
	l-160,158.8L0,1089.6v6L156.5,1250.9z M156.5,1459.1l160-158.8l160,158.8l160-158.8l160,158.8l160-158.8l160,158.8l160-158.8
	l160,158.8l160-158.8v-6l-160,158.8l-160-158.8l-160,158.8l-160-158.8l-160,158.8l-160-158.8l-160,158.8l-160-158.8l-160,158.8
	L0,1297.8v6L156.5,1459.1z M156.5,1389.7l160-158.8l160,158.8l160-158.8l160,158.8l160-158.8l160,158.8l160-158.8l160,158.8
	l160-158.8v-6l-160,158.8l-160-158.8l-160,158.8l-160-158.8l-160,158.8l-160-158.8l-160,158.8l-160-158.8l-160,158.8L0,1228.4v6
	L156.5,1389.7z M156.5,1320.3l160-158.8l160,158.8l160-158.8l160,158.8l160-158.8l160,158.8l160-158.8l160,158.8l160-158.8v-6
	l-160,158.8l-160-158.8l-160,158.8l-160-158.8l-160,158.8l-160-158.8l-160,158.8l-160-158.8l-160,158.8L0,1159v6L156.5,1320.3z
	 M156.5,1597.9l160-158.8l160,158.8l160-158.8l160,158.8l160-158.8l160,158.8l160-158.8l160,158.8l160-158.8v-6l-160,158.8
	l-160-158.8l-160,158.8l-160-158.8l-160,158.8l-160-158.8l-160,158.8l-160-158.8l-160,158.8L0,1436.6v6L156.5,1597.9z M636.4,1571.9
	l-26.2,26h6l20.2-20l20.2,20h6L636.4,1571.9z M316.5,1571.9l-26.2,26h6l20.2-20l20.2,20h6L316.5,1571.9z M156.5,348.7l160-158.8
	l160,158.8l160-158.8l160,158.8l160-158.8l160,158.8l160-158.8l160,158.8l160-158.8v-6l-160,158.8l-160-158.8l-160,158.8l-160-158.8
	l-160,158.8l-160-158.8l-160,158.8l-160-158.8l-160,158.8L0,187.3v6L156.5,348.7z M956.4,1571.9l-26.2,26h6l20.2-20l20.2,20h6
	L956.4,1571.9z M1276.3,1571.9l-26.2,26h6l20.2-20l20.2,20h6L1276.3,1571.9z M156.5,487.5l160-158.8l160,158.8l160-158.8l160,158.8
	l160-158.8l160,158.8l160-158.8l160,158.8l160-158.8v-6l-160,158.8l-160-158.8l-160,158.8l-160-158.8l-160,158.8l-160-158.8
	l-160,158.8l-160-158.8l-160,158.8L0,326.1v6L156.5,487.5z M156.5,626.3l160-158.8l160,158.8l160-158.8l160,158.8l160-158.8
	l160,158.8l160-158.8l160,158.8l160-158.8v-6l-160,158.8l-160-158.8l-160,158.8l-160-158.8l-160,158.8l-160-158.8l-160,158.8
	l-160-158.8l-160,158.8L0,465v6L156.5,626.3z M156.5,556.9l160-158.8l160,158.8l160-158.8l160,158.8l160-158.8l160,158.8l160-158.8
	l160,158.8l160-158.8v-6l-160,158.8l-160-158.8l-160,158.8l-160-158.8l-160,158.8l-160-158.8l-160,158.8l-160-158.8l-160,158.8
	L0,395.5v6L156.5,556.9z M156.5,418.1l160-158.8l160,158.8l160-158.8l160,158.8l160-158.8l160,158.8l160-158.8l160,158.8l160-158.8
	v-6l-160,158.8l-160-158.8l-160,158.8l-160-158.8l-160,158.8l-160-158.8l-160,158.8l-160-158.8l-160,158.8L0,256.7v6L156.5,418.1z
	 M156.5,695.7l160-158.8l160,158.8l160-158.8l160,158.8l160-158.8l160,158.8l160-158.8l160,158.8l160-158.8v-6l-160,158.8
	l-160-158.8l-160,158.8l-160-158.8l-160,158.8l-160-158.8l-160,158.8l-160-158.8l-160,158.8L0,534.4v6L156.5,695.7z M316.5,120.5
	l160,158.8l160-158.8l160,158.8l160-158.8l160,158.8l160-158.8l160,158.8l160-158.8v-6l-160,158.8l-160-158.8l-160,158.8l-160-158.8
	l-160,158.8l-160-158.8l-160,158.8l-160-158.8l-160,158.8L0,117.9v6l156.5,155.4L316.5,120.5z M156.5,1112.1l160-158.8l160,158.8
	l160-158.8l160,158.8l160-158.8l160,158.8l160-158.8l160,158.8l160-158.8v-6l-160,158.8l-160-158.8l-160,158.8l-160-158.8
	l-160,158.8l-160-158.8l-160,158.8l-160-158.8l-160,158.8L0,950.8v6L156.5,1112.1z M406.5,1597.9h6l-96.1-95.4l-96.1,95.4h6
	l90.1-89.4L406.5,1597.9z M1506.3,1.6h-6l-63.9,63.5l-63.9-63.5h-6l70,69.4L1506.3,1.6z M936.3,1.6h-6L796.4,134.5L662.6,1.6h-6
	l139.9,138.8L936.3,1.6z M1256.2,1.6h-6l-133.9,132.9L982.5,1.6h-6l139.9,138.8L1256.2,1.6z M1436.3,134.5L1302.5,1.6h-6
	l139.9,138.8L1576.2,1.6h-6L1436.3,134.5z M156.5,140.5L296.4,1.6h-6L156.5,134.5L22.7,1.6h-6L156.5,140.5z M156.5,71.1l70-69.4h-6
	l-63.9,63.5L92.6,1.6h-6L156.5,71.1z M616.3,1.6h-6L476.4,134.5L342.6,1.6h-6l139.9,138.8L616.3,1.6z M1366.4,1597.9h6l-96.1-95.4
	l-96.1,95.4h6l90.1-89.4L1366.4,1597.9z M1596.3,1502.5l-96.1,95.4h6l90.1-89.4V1502.5z M412.5,1.6h-6l70,69.4l70-69.4h-6
	l-63.9,63.5L412.5,1.6z M726.5,1597.9h6l-96.1-95.4l-96.1,95.4h6l90.1-89.4L726.5,1597.9z M86.6,1597.9h6L0,1506v6L86.6,1597.9z
	 M1046.4,1597.9h6l-96.1-95.4l-96.1,95.4h6l90.1-89.4L1046.4,1597.9z M1186.3,1.6h-6l-63.9,63.5l-63.9-63.5h-6l70,69.4L1186.3,1.6z
	 M732.5,1.6h-6l70,69.4l70-69.4h-6l-63.9,63.5L732.5,1.6z M16.7,1597.9h6L0,1575.4v6L16.7,1597.9z M1276.3,45.1l-160,158.8
	l-160-158.8l-160,158.8l-160-158.8l-160,158.8l-160-158.8l-160,158.8L0,48.5v6l156.5,155.4l160-158.8l160,158.8l160-158.8l160,158.8
	l160-158.8l160,158.8l160-158.8l160,158.8l160-158.8v-6l-160,158.8L1276.3,45.1z M1596.3,1571.9l-26.2,26h6l20.2-20V1571.9z"/>
<path class="st0" d="M1599.9,817.9v-6l156.5,155.4l160-158.8l160,158.8l160-158.8l160,158.8l160-158.8l160,158.8l160-158.8
	l160,158.8l160-158.8v6l-160,158.8l-160-158.8l-160,158.8l-160-158.8l-160,158.8l-160-158.8l-160,158.8l-160-158.8l-160,158.8
	L1599.9,817.9z M1756.4,1181.5l160-158.8l160,158.8l160-158.8l160,158.8l160-158.8l160,158.8l160-158.8l160,158.8l160-158.8v-6
	l-160,158.8l-160-158.8l-160,158.8l-160-158.8l-160,158.8l-160-158.8l-160,158.8l-160-158.8l-160,158.8l-156.5-155.4v6
	L1756.4,1181.5z M1756.4,1042.7l160-158.8l160,158.8l160-158.8l160,158.8l160-158.8l160,158.8l160-158.8l160,158.8l160-158.8v-6
	l-160,158.8l-160-158.8l-160,158.8l-160-158.8l-160,158.8l-160-158.8l-160,158.8l-160-158.8l-160,158.8l-156.5-155.4v6
	L1756.4,1042.7z M1756.4,903.9l160-158.8l160,158.8l160-158.8l160,158.8l160-158.8l160,158.8l160-158.8l160,158.8l160-158.8v-6
	l-160,158.8l-160-158.8l-160,158.8l-160-158.8l-160,158.8l-160-158.8l-160,158.8l-160-158.8l-160,158.8l-156.5-155.4v6L1756.4,903.9
	z M1756.4,834.5l160-158.8l160,158.8l160-158.8l160,158.8l160-158.8l160,158.8l160-158.8l160,158.8l160-158.8v-6l-160,158.8
	l-160-158.8l-160,158.8l-160-158.8l-160,158.8l-160-158.8l-160,158.8l-160-158.8l-160,158.8l-156.5-155.4v6L1756.4,834.5z
	 M1756.4,1528.5l160-158.8l160,158.8l160-158.8l160,158.8l160-158.8l160,158.8l160-158.8l160,158.8l160-158.8v-6l-160,158.8
	l-160-158.8l-160,158.8l-160-158.8l-160,158.8l-160-158.8l-160,158.8l-160-158.8l-160,158.8l-156.5-155.4v6L1756.4,1528.5z
	 M1756.4,765.1l160-158.8l160,158.8l160-158.8l160,158.8l160-158.8l160,158.8l160-158.8l160,158.8l160-158.8v-6l-160,158.8
	l-160-158.8l-160,158.8l-160-158.8l-160,158.8l-160-158.8l-160,158.8l-160-158.8l-160,158.8l-156.5-155.4v6L1756.4,765.1z
	 M1756.4,1250.9l160-158.8l160,158.8l160-158.8l160,158.8l160-158.8l160,158.8l160-158.8l160,158.8l160-158.8v-6l-160,158.8
	l-160-158.8l-160,158.8l-160-158.8l-160,158.8l-160-158.8l-160,158.8l-160-158.8l-160,158.8l-156.5-155.4v6L1756.4,1250.9z
	 M1756.4,1459.1l160-158.8l160,158.8l160-158.8l160,158.8l160-158.8l160,158.8l160-158.8l160,158.8l160-158.8v-6l-160,158.8
	l-160-158.8l-160,158.8l-160-158.8l-160,158.8l-160-158.8l-160,158.8l-160-158.8l-160,158.8l-156.5-155.4v6L1756.4,1459.1z
	 M1756.4,1389.7l160-158.8l160,158.8l160-158.8l160,158.8l160-158.8l160,158.8l160-158.8l160,158.8l160-158.8v-6l-160,158.8
	l-160-158.8l-160,158.8l-160-158.8l-160,158.8l-160-158.8l-160,158.8l-160-158.8l-160,158.8l-156.5-155.4v6L1756.4,1389.7z
	 M1756.4,1320.3l160-158.8l160,158.8l160-158.8l160,158.8l160-158.8l160,158.8l160-158.8l160,158.8l160-158.8v-6l-160,158.8
	l-160-158.8l-160,158.8l-160-158.8l-160,158.8l-160-158.8l-160,158.8l-160-158.8l-160,158.8L1599.9,1159v6L1756.4,1320.3z
	 M1756.4,1597.9l160-158.8l160,158.8l160-158.8l160,158.8l160-158.8l160,158.8l160-158.8l160,158.8l160-158.8v-6l-160,158.8
	l-160-158.8l-160,158.8l-160-158.8l-160,158.8l-160-158.8l-160,158.8l-160-158.8l-160,158.8l-156.5-155.4v6L1756.4,1597.9z
	 M2236.3,1571.9l-26.2,26h6l20.2-20l20.2,20h6L2236.3,1571.9z M1916.3,1571.9l-26.2,26h6l20.2-20l20.2,20h6L1916.3,1571.9z
	 M1756.4,348.7l160-158.8l160,158.8l160-158.8l160,158.8l160-158.8l160,158.8l160-158.8l160,158.8l160-158.8v-6l-160,158.8
	l-160-158.8l-160,158.8l-160-158.8l-160,158.8l-160-158.8l-160,158.8l-160-158.8l-160,158.8l-156.5-155.4v6L1756.4,348.7z
	 M2556.2,1571.9l-26.2,26h6l20.2-20l20.2,20h6L2556.2,1571.9z M2876.2,1571.9l-26.2,26h6l20.2-20l20.2,20h6L2876.2,1571.9z
	 M1756.4,487.5l160-158.8l160,158.8l160-158.8l160,158.8l160-158.8l160,158.8l160-158.8l160,158.8l160-158.8v-6l-160,158.8
	l-160-158.8l-160,158.8l-160-158.8l-160,158.8l-160-158.8l-160,158.8l-160-158.8l-160,158.8l-156.5-155.4v6L1756.4,487.5z
	 M1756.4,626.3l160-158.8l160,158.8l160-158.8l160,158.8l160-158.8l160,158.8l160-158.8l160,158.8l160-158.8v-6l-160,158.8
	l-160-158.8l-160,158.8l-160-158.8l-160,158.8l-160-158.8l-160,158.8l-160-158.8l-160,158.8L1599.9,465v6L1756.4,626.3z
	 M1756.4,556.9l160-158.8l160,158.8l160-158.8l160,158.8l160-158.8l160,158.8l160-158.8l160,158.8l160-158.8v-6l-160,158.8
	l-160-158.8l-160,158.8l-160-158.8l-160,158.8l-160-158.8l-160,158.8l-160-158.8l-160,158.8l-156.5-155.4v6L1756.4,556.9z
	 M1756.4,418.1l160-158.8l160,158.8l160-158.8l160,158.8l160-158.8l160,158.8l160-158.8l160,158.8l160-158.8v-6l-160,158.8
	l-160-158.8l-160,158.8l-160-158.8l-160,158.8l-160-158.8l-160,158.8l-160-158.8l-160,158.8l-156.5-155.4v6L1756.4,418.1z
	 M1756.4,695.7l160-158.8l160,158.8l160-158.8l160,158.8l160-158.8l160,158.8l160-158.8l160,158.8l160-158.8v-6l-160,158.8
	l-160-158.8l-160,158.8l-160-158.8l-160,158.8l-160-158.8l-160,158.8l-160-158.8l-160,158.8l-156.5-155.4v6L1756.4,695.7z
	 M1916.3,120.5l160,158.8l160-158.8l160,158.8l160-158.8l160,158.8l160-158.8l160,158.8l160-158.8v-6l-160,158.8l-160-158.8
	l-160,158.8l-160-158.8l-160,158.8l-160-158.8l-160,158.8l-160-158.8l-160,158.8l-156.5-155.4v6l156.5,155.4L1916.3,120.5z
	 M1756.4,1112.1l160-158.8l160,158.8l160-158.8l160,158.8l160-158.8l160,158.8l160-158.8l160,158.8l160-158.8v-6l-160,158.8
	l-160-158.8l-160,158.8l-160-158.8l-160,158.8l-160-158.8l-160,158.8l-160-158.8l-160,158.8l-156.5-155.4v6L1756.4,1112.1z
	 M2006.4,1597.9h6l-96.1-95.4l-96.1,95.4h6l90.1-89.4L2006.4,1597.9z M3106.1,1.6h-6l-63.9,63.5l-63.9-63.5h-6l70,69.4L3106.1,1.6z
	 M2536.1,1.6h-6l-133.8,132.9L2262.4,1.6h-6l139.9,138.8L2536.1,1.6z M2856.1,1.6h-6l-133.9,132.9L2582.4,1.6h-6l139.9,138.8
	L2856.1,1.6z M3036.2,134.5L2902.3,1.6h-6l139.9,138.8L3176.1,1.6h-6L3036.2,134.5z M1756.4,140.5L1896.2,1.6h-6l-133.8,132.9
	L1622.5,1.6h-6L1756.4,140.5z M1756.4,71.1l70-69.4h-6l-63.9,63.5l-63.9-63.5h-6L1756.4,71.1z M2216.2,1.6h-6l-133.8,132.9
	L1942.5,1.6h-6l139.9,138.8L2216.2,1.6z M2966.3,1597.9h6l-96.1-95.4l-96.1,95.4h6l90.1-89.4L2966.3,1597.9z M3196.2,1502.5
	l-96.1,95.4h6l90.1-89.4V1502.5z M2012.4,1.6h-6l70,69.4l70-69.4h-6l-63.9,63.5L2012.4,1.6z M2326.4,1597.9h6l-96.1-95.4l-96.1,95.4
	h6l90.1-89.4L2326.4,1597.9z M1686.5,1597.9h6l-92.6-92v6L1686.5,1597.9z M2646.3,1597.9h6l-96.1-95.4l-96.1,95.4h6l90.1-89.4
	L2646.3,1597.9z M2786.2,1.6h-6l-63.9,63.5l-63.9-63.5h-6l70,69.4L2786.2,1.6z M2332.3,1.6h-6l70,69.4l70-69.4h-6l-63.9,63.5
	L2332.3,1.6z M1616.6,1597.9h6l-22.7-22.6v6L1616.6,1597.9z M2876.2,45.1l-160,158.8l-160-158.8l-160,158.8l-160-158.8l-160,158.8
	l-160-158.8l-160,158.8L1599.9,48.5v6l156.5,155.4l160-158.8l160,158.8l160-158.8l160,158.8l160-158.8l160,158.8l160-158.8
	l160,158.8l160-158.8v-6l-160,158.8L2876.2,45.1z M3196.2,1571.9l-26.2,26h6l20.2-20V1571.9z"/>
</svg>
