<?xml version="1.0" encoding="UTF-8"?>
<svg width="1700px" height="3748px" viewBox="0 0 1700 3748" version="1.1" xmlns="http://www.w3.org/2000/svg" xmlns:xlink="http://www.w3.org/1999/xlink">
    <title>about-bg--sm</title>
    <g id="about-bg--sm" stroke="none" stroke-width="1" fill="none" fill-rule="evenodd">
        <g id="Group-Copy-2" transform="translate(-3.000000, 47.000000)" fill="#B8F5EF">
            <rect id="Rectangle-Copy-3" transform="translate(853.070853, 241.000000) rotate(-270.000000) translate(-853.070853, -241.000000) " x="852.5" y="-610.5" width="1.141707" height="1703"></rect>
            <rect id="Rectangle-Copy-5" transform="translate(853.070853, 385.000000) rotate(-270.000000) translate(-853.070853, -385.000000) " x="852.5" y="-466.5" width="1.141707" height="1703"></rect>
            <rect id="Rectangle-Copy-10" transform="translate(851.820853, 897.001513) rotate(-270.000000) translate(-851.820853, -897.001513) " x="851.248487" y="45.7515129" width="1.14473273" height="1702.5"></rect>
            <rect id="Rectangle-Copy-11" transform="translate(851.820853, 951.001513) rotate(-270.000000) translate(-851.820853, -951.001513) " x="851.248487" y="99.7515129" width="1.14473273" height="1702.5"></rect>
            <rect id="Rectangle-Copy-4" transform="translate(853.070853, 205.500000) rotate(-270.000000) translate(-853.070853, -205.500000) " x="852.5" y="-646" width="1.141707" height="1703"></rect>
            <rect id="Rectangle-Copy-6" transform="translate(851.500000, 145.500000) rotate(-270.000000) translate(-851.500000, -145.500000) " x="850.929146" y="-706" width="1.141707" height="1703"></rect>
            <rect id="Rectangle-Copy-7" transform="translate(853.070853, 33.000000) rotate(-270.000000) translate(-853.070853, -33.000000) " x="852.5" y="-818.5" width="1.141707" height="1703"></rect>
            <rect id="Rectangle-Copy-9" transform="translate(853.070853, 1.000000) rotate(-270.000000) translate(-853.070853, -1.000000) " x="852.5" y="-850.5" width="1.141707" height="1703"></rect>
        </g>
    </g>
</svg>