<?xml version="1.0" encoding="utf-8"?>
<!-- Generator: Adobe Illustrator 24.2.0, SVG Export Plug-In . SVG Version: 6.00 Build 0)  -->
<svg version="1.1" id="Layer_1" xmlns="http://www.w3.org/2000/svg" xmlns:xlink="http://www.w3.org/1999/xlink" x="0px" y="0px"
	 viewBox="0 0 490 490" style="enable-background:new 0 0 490 490;" xml:space="preserve">
<style type="text/css">
	.st0{fill:#E31F3C;}
</style>
<g>
	<path className="st0" d="M-229.9,136.5v217h-217v-217H-229.9 M-93.9,0.5h-489v489h489V0.5L-93.9,0.5z"/>
</g>
<g>
	<path className="st0" d="M245,132.5c30,0,58.3,11.7,79.5,33c21.2,21.2,33,49.5,33,79.5s-11.7,58.3-33,79.5s-49.5,33-79.5,33
		s-58.3-11.7-79.5-33c-21.2-21.2-33-49.5-33-79.5s11.7-58.3,33-79.5C186.7,144.2,215,132.5,245,132.5 M245,0.5
		C110,0.5,0.5,110,0.5,245S110,489.5,245,489.5S489.5,380,489.5,245S380,0.5,245,0.5L245,0.5z"/>
</g>
</svg>
