<?xml version="1.0" encoding="UTF-8" ?>
<svg
   width="1700px"
   height="3748px"
   viewBox="0 0 1700 3748"
   version="1.1"
   xmlns="http://www.w3.org/2000/svg"
   xmlns:xlink="http://www.w3.org/1999/xlink"
>
    <title>guides--md</title>
    <g id="guides--md" stroke="none" strokeWidth="1" fill="none" fill-rule="evenodd">
        <g id="Group-Copy-2" transform="translate(-5.000000, 95.000000)" fill="#B8F5EF">
            <rect
            id="Rectangle-Copy-3"
            transform="translate(855.070853, 196.000000) rotate(-270.000000) translate(-855.070853, -196.000000) "
            x="854.5"
            y="-655.5"
            width="1.141707"
            height="1703"
         />
            <rect
            id="Rectangle-Copy-5"
            transform="translate(855.070853, 245.000000) rotate(-270.000000) translate(-855.070853, -245.000000) "
            x="854.5"
            y="-606.5"
            width="1.141707"
            height="1703"
         />
            <rect
            id="Rectangle-Copy-8"
            transform="translate(856.070853, 333.000000) rotate(-270.000000) translate(-856.070853, -333.000000) "
            x="855.5"
            y="-517.5"
            width="1.141707"
            height="1701"
         />
            <rect
            id="Rectangle-Copy-4"
            transform="translate(853.570853, 160.000000) rotate(-270.000000) translate(-853.570853, -160.000000) "
            x="853"
            y="-693"
            width="1.141707"
            height="1706"
         />
            <rect
            id="Rectangle-Copy-6"
            transform="translate(853.570853, 149.000000) rotate(-270.000000) translate(-853.570853, -149.000000) "
            x="853"
            y="-704"
            width="1.141707"
            height="1706"
         />
            <rect
            id="Rectangle-Copy-7"
            transform="translate(854.070853, 33.000000) rotate(-270.000000) translate(-854.070853, -33.000000) "
            x="853.5"
            y="-819.5"
            width="1.141707"
            height="1705"
         />
            <rect
            id="Rectangle-Copy-9"
            transform="translate(854.070853, 1.000000) rotate(-270.000000) translate(-854.070853, -1.000000) "
            x="853.5"
            y="-851.5"
            width="1.141707"
            height="1705"
         />
        </g>
    </g>
</svg>
