<?xml version="1.0" encoding="UTF-8"?>
<svg width="1700px" height="3748px" viewBox="0 0 1700 3748" version="1.1" xmlns="http://www.w3.org/2000/svg" xmlns:xlink="http://www.w3.org/1999/xlink">
    <title>guides--xl</title>
    <g id="guides--xl" stroke="none" stroke-width="1" fill="none" fill-rule="evenodd">
        <g id="Group-Copy-2" transform="translate(-2.000000, 95.000000)" fill="#B8F5EF">
            <rect id="Rectangle-Copy-3" transform="translate(852.070853, 391.000000) rotate(-270.000000) translate(-852.070853, -391.000000) " x="851.5" y="-460.5" width="1.141707" height="1703"></rect>
            <rect id="Rectangle-Copy-5" transform="translate(852.070853, 487.000000) rotate(-270.000000) translate(-852.070853, -487.000000) " x="851.5" y="-364.5" width="1.141707" height="1703"></rect>
            <rect id="Rectangle-Copy-8" transform="translate(854.570853, 673.000000) rotate(-270.000000) translate(-854.570853, -673.000000) " x="854" y="-176" width="1.141707" height="1698"></rect>
            <rect id="Rectangle-Copy-4" transform="translate(852.070853, 319.000000) rotate(-270.000000) translate(-852.070853, -319.000000) " x="851.5" y="-532.5" width="1.141707" height="1703"></rect>
            <rect id="Rectangle-Copy-6" transform="translate(852.070853, 295.000000) rotate(-270.000000) translate(-852.070853, -295.000000) " x="851.5" y="-556.5" width="1.141707" height="1703"></rect>
            <rect id="Rectangle-Copy-7" transform="translate(852.070853, 33.000000) rotate(-270.000000) translate(-852.070853, -33.000000) " x="851.5" y="-818.5" width="1.141707" height="1703"></rect>
            <rect id="Rectangle-Copy-9" transform="translate(852.070853, 1.000000) rotate(-270.000000) translate(-852.070853, -1.000000) " x="851.5" y="-850.5" width="1.141707" height="1703"></rect>
        </g>
    </g>
</svg>