<?xml version="1.0" encoding="UTF-8"?>
<svg width="1700px" height="3748px" viewBox="0 0 1700 3748" version="1.1" xmlns="http://www.w3.org/2000/svg" xmlns:xlink="http://www.w3.org/1999/xlink">
    <title>guides--lg</title>
    <g id="guides--lg" stroke="none" stroke-width="1" fill="none" fill-rule="evenodd">
        <g id="Group-Copy-2" transform="translate(-2.000000, 95.000000)" fill="#B8F5EF">
            <rect id="Rectangle-Copy-3" transform="translate(852.070853, 345.000000) rotate(-270.000000) translate(-852.070853, -345.000000) " x="851.5" y="-506.5" width="1.141707" height="1703"></rect>
            <rect id="Rectangle-Copy-5" transform="translate(852.070853, 417.000000) rotate(-270.000000) translate(-852.070853, -417.000000) " x="851.5" y="-434.5" width="1.141707" height="1703"></rect>
            <rect id="Rectangle-Copy-8" transform="translate(854.570853, 601.000000) rotate(-270.000000) translate(-854.570853, -601.000000) " x="854" y="-248" width="1.141707" height="1698"></rect>
            <rect id="Rectangle-Copy-4" transform="translate(852.070853, 292.000000) rotate(-270.000000) translate(-852.070853, -292.000000) " x="851.5" y="-559.5" width="1.141707" height="1703"></rect>
            <rect id="Rectangle-Copy-6" transform="translate(852.070853, 274.000000) rotate(-270.000000) translate(-852.070853, -274.000000) " x="851.5" y="-577.5" width="1.141707" height="1703"></rect>
            <rect id="Rectangle-Copy-7" transform="translate(852.070853, 33.000000) rotate(-270.000000) translate(-852.070853, -33.000000) " x="851.5" y="-818.5" width="1.141707" height="1703"></rect>
            <rect id="Rectangle-Copy-9" transform="translate(852.070853, 1.000000) rotate(-270.000000) translate(-852.070853, -1.000000) " x="851.5" y="-850.5" width="1.141707" height="1703"></rect>
        </g>
    </g>
</svg>