<?xml version="1.0" encoding="UTF-8"?>
<svg width="1700px" height="3748px" viewBox="0 0 1700 3748" version="1.1" xmlns="http://www.w3.org/2000/svg" xmlns:xlink="http://www.w3.org/1999/xlink">
    <title>guides</title>
    <g id="guides" stroke="none" stroke-width="1" fill="none" fill-rule="evenodd">
        <g id="Group-Copy-2" transform="translate(-6.000000, 47.000000)" fill="#B8F5EF">
            <rect id="Rectangle-Copy-3" transform="translate(855.070853, 185.000000) rotate(-270.000000) translate(-855.070853, -185.000000) " x="854.5" y="-666.5" width="1.141707" height="1703"></rect>
            <rect id="Rectangle-Copy-5" transform="translate(856.070853, 216.000000) rotate(-270.000000) translate(-856.070853, -216.000000) " x="855.5" y="-635.5" width="1.141707" height="1703"></rect>
            <rect id="Rectangle-Copy-8" transform="translate(856.070853, 267.000000) rotate(-270.000000) translate(-856.070853, -267.000000) " x="855.5" y="-584.5" width="1.141707" height="1703"></rect>
            <rect id="Rectangle-Copy-4" transform="translate(852.070853, 163.000000) rotate(-270.000000) translate(-852.070853, -163.000000) " x="851.5" y="-688.5" width="1.141707" height="1703"></rect>
            <rect id="Rectangle-Copy-6" transform="translate(852.070853, 156.453125) rotate(-270.000000) translate(-852.070853, -156.453125) " x="851.5" y="-695.046875" width="1.141707" height="1703"></rect>
            <rect id="Rectangle-Copy-7" transform="translate(856.070853, 32.000000) rotate(-270.000000) translate(-856.070853, -32.000000) " x="855.5" y="-819.5" width="1.141707" height="1703"></rect>
            <rect id="Rectangle-Copy-9" transform="translate(856.070853, 1.000000) rotate(-270.000000) translate(-856.070853, -1.000000) " x="855.5" y="-850.5" width="1.141707" height="1703"></rect>
        </g>
    </g>
</svg>