<svg width="25" height="25" viewBox="0 0 25 25" fill="none" xmlns="http://www.w3.org/2000/svg">
<circle cx="12.9954" cy="12.9954" r="11.0033" stroke="black" stroke-width="1.99988"/>
<path d="M8.21484 19.2803L12.2399 11.0202L14.0999 11.7553L10.0748 20.0154L8.21484 19.2803Z" fill="black"/>
<path d="M17.7764 19.2803L13.7403 10.9977L11.8803 11.7328L15.9164 20.0154L17.7764 19.2803Z" fill="black"/>
<path d="M13.8223 12.7393L6.09486 10.6687L6.6125 8.73685L14.3399 10.8074L13.8223 12.7393Z" fill="black"/>
<path d="M12.1865 12.7393L19.9139 10.6687L19.3963 8.73685L11.6689 10.8074L12.1865 12.7393Z" fill="black"/>
<path d="M14.7356 7.9679C14.7356 8.92908 13.9564 9.70827 12.9952 9.70827C12.0341 9.70827 11.2549 8.92908 11.2549 7.9679C11.2549 7.00673 12.0341 6.22754 12.9952 6.22754C13.9564 6.22754 14.7356 7.00673 14.7356 7.9679Z" fill="black"/>
</svg>
